<?xml version="1.0" encoding="iso-8859-1"?>
<!-- Generator: Adobe Illustrator 19.0.0, SVG Export Plug-In . SVG Version: 6.00 Build 0)  -->
<svg xmlns="http://www.w3.org/2000/svg" xmlns:xlink="http://www.w3.org/1999/xlink" version="1.1" id="Layer_1" x="0px" y="0px" viewBox="0 0 282.948 282.948" style="enable-background:new 0 0 282.948 282.948;" xml:space="preserve" width="512" height="512">
<g>
	<path style="fill:#2B8A9A;" d="M211.142,32.482c-13.815,0-24.668-11.187-24.668-25.002v0.006c0-5.862-7-9.441-12-6.351v0.002   c-10,6.497-22.139,9.644-34,9.456c-11.194-0.177-22.351-3.111-32.235-9.111h-0.173c-4.981-3-11.592,0.149-11.592,6.01V7.48   c0,13.815-10.853,25.002-24.668,25.002H43.474v131.43c0,40.327,18.75,78.367,50.707,102.964   c13.654,10.51,29.95,15.855,46.293,16.064c17.006,0.218,34.074-5.128,48.283-16.064c31.957-24.597,50.717-62.638,50.717-102.964   V32.482H211.142z"/>
	<g>
		<path style="fill:#165C6C;" d="M140.474,10.593c-11.194-0.177-22.351-3.111-32.235-9.111h-0.173    c-4.981-3-11.592,0.149-11.592,6.01V7.48c0,13.815-10.853,25.002-24.668,25.002H43.474v110h97V10.593z"/>
		<path style="fill:#32A5B9;" d="M239.474,142.482v-110h-28.332c-13.815,0-24.668-11.187-24.668-25.002v0.006    c0-5.861-7-9.441-12-6.35v0.002c-10,6.497-22.139,9.644-34,9.456v131.889H239.474z"/>
		<path style="fill:#1C7287;" d="M140.474,142.482v140.459c17.006,0.218,34.074-5.128,48.283-16.064    c31.957-24.597,50.717-62.638,50.717-102.964v-21.43H140.474z"/>
	</g>
</g>















</svg>
